<svg width="16" height="16" viewBox="0 0 16 16" fill="none" xmlns="http://www.w3.org/2000/svg">
<path fill-rule="evenodd" clip-rule="evenodd" d="M6.62136 5.78038C6.81832 5.60531 6.96802 5.38346 7.05665 5.13529L7.2803 4.50908C7.38932 4.2038 7.67848 4.00003 8.00264 4.00003C8.3268 4.00003 8.61596 4.2038 8.72499 4.50908L8.94863 5.13529C9.03726 5.38346 9.18696 5.60531 9.38392 5.78038V5.78038C9.56946 5.94531 9.77332 6.09988 10.0157 6.15373L11.495 6.48246C11.7901 6.54804 12 6.80976 12 7.11204C12 7.52463 11.6179 7.83111 11.2152 7.74161L10.06 7.4849C9.95055 7.46058 9.84376 7.53817 9.84842 7.65019V7.65019L10.0246 11.8775C10.0421 12.2981 9.70584 12.6487 9.28487 12.6487C8.87599 12.6487 8.54454 12.3172 8.54454 11.9083V11.027C8.54454 10.7285 8.30253 10.4865 8.00399 10.4865C7.70546 10.4865 7.46345 10.7285 7.46345 11.027V11.907C7.46345 12.3166 7.1314 12.6487 6.72179 12.6487C6.30007 12.6487 5.96322 12.2975 5.98078 11.8761L6.15686 7.65019V7.65019C6.16155 7.53753 6.05412 7.45954 5.94406 7.484L4.78483 7.74161C4.38207 7.83111 4 7.52463 4 7.11204C4 6.80976 4.20994 6.54804 4.50502 6.48246L5.9922 6.15198C6.23351 6.09836 6.4366 5.94461 6.62136 5.78038V5.78038Z" fill="white"/>
</svg>
