<svg width="24" height="24" viewBox="0 0 24 24" fill="none" xmlns="http://www.w3.org/2000/svg">
<g id="Frame 2131327378">
<rect width="24" height="24" rx="5" fill="#090E0D"/>
<g id="Logo">
<g id="Group 26">
<g id="Group 25">
<path id="Union" fill-rule="evenodd" clip-rule="evenodd" d="M10.0014 8.60892C10.2513 8.38674 10.4413 8.10518 10.5538 7.79022L10.9204 6.76357C11.084 6.30567 11.5177 6 12.004 6C12.4902 6 12.9239 6.30567 13.0875 6.76357L13.4541 7.79022C13.5666 8.10518 13.7566 8.38674 14.0066 8.60892L14.2312 8.80861C14.4327 8.98769 14.6574 9.14919 14.9205 9.20767L17.2425 9.72366C17.6851 9.82202 18 10.2146 18 10.668C18 11.2869 17.4269 11.7466 16.8228 11.6124L15.0419 11.2166C14.9016 11.1855 14.7647 11.2846 14.7707 11.4282L15.0368 17.8162C15.0631 18.4471 14.5588 18.973 13.9273 18.973C13.314 18.973 12.8168 18.4758 12.8168 17.8625V16.5405C12.8168 16.0927 12.4538 15.7297 12.006 15.7297C11.5582 15.7297 11.1952 16.0927 11.1952 16.5405V17.8605C11.1952 18.4749 10.6971 18.973 10.0827 18.973C9.45011 18.973 8.94483 18.4462 8.97116 17.8142L9.23725 11.4282C9.24327 11.2837 9.10537 11.1839 8.96421 11.2153L7.17725 11.6124C6.5731 11.7466 6 11.2869 6 10.668C6 10.2146 6.31492 9.82202 6.75754 9.72366L9.09153 9.20499C9.35303 9.14688 9.57648 8.98659 9.7767 8.80861L10.0014 8.60892Z" fill="white"/>
</g>
</g>
</g>
</g>
</svg>
