<svg width="2685" height="1515" viewBox="0 0 2685 1515" fill="none" xmlns="http://www.w3.org/2000/svg">
<g opacity="0.2" filter="url(#filter0_f_50_8248)">
<path d="M1988.6 362.546C2259.35 301.103 2255.97 480.226 2220.44 577.467C2259.79 599.841 2302.18 636.716 2156.86 605.22C1975.22 565.85 2168.33 789.161 2274.93 773.671C2381.53 758.182 2379.61 871.774 1988.6 896.299C1597.59 920.825 2034.49 789.161 2075.12 700.095C2115.75 611.028 1988.6 537.452 1791.18 537.452C1593.77 537.452 1754.85 666.534 1693.67 736.883C1632.48 807.233 1664.03 666.534 1459.44 605.22C1254.86 543.906 1232.39 666.534 1316.52 736.883C1400.65 807.233 1341.38 825.95 1477.61 957.613C1613.84 1089.28 1470.92 1092.5 1366.23 1150.59C1261.55 1208.68 1023.5 1077.01 934.588 1006.66C845.678 936.314 921.204 853.057 1048.35 789.161C1175.51 725.266 1100.46 721.393 1070.82 666.534C1041.18 611.674 950.84 654.271 798.355 871.774C645.87 1089.28 577.992 859.511 466.615 789.161C355.239 718.812 300.746 509.699 407.82 537.452C514.895 565.204 818.909 420.633 861.93 393.526C904.951 366.419 1336.6 387.072 1459.44 481.947C1582.29 576.822 1650.17 439.35 1988.6 362.546Z" fill="url(#paint0_linear_50_8248)"/>
</g>
<defs>
<filter id="filter0_f_50_8248" x="0" y="0" width="2685" height="1515" filterUnits="userSpaceOnUse" color-interpolation-filters="sRGB">
<feFlood flood-opacity="0" result="BackgroundImageFix"/>
<feBlend mode="normal" in="SourceGraphic" in2="BackgroundImageFix" result="shape"/>
<feGaussianBlur stdDeviation="175" result="effect1_foregroundBlur_50_8248"/>
</filter>
<linearGradient id="paint0_linear_50_8248" x1="1975" y1="633" x2="1894.5" y2="1078" gradientUnits="userSpaceOnUse">
<stop stop-color="#FFE925"/>
<stop offset="1" stop-color="#FFE925" stop-opacity="0.1"/>
</linearGradient>
</defs>
</svg>
