<svg width="40" height="40" viewBox="0 0 40 40" fill="none" xmlns="http://www.w3.org/2000/svg">
<g id="Group 108">
<g id="Group 48" filter="url(#filter0_b_1385_14400)">
<g id="Group 46">
<g id="Rectangle 70" filter="url(#filter1_b_1385_14400)">
<path d="M0 10C0 4.47715 4.47715 0 10 0H30C35.5228 0 40 4.47715 40 10V30C40 35.5228 35.5228 40 30 40H10C4.47715 40 0 35.5228 0 30V10Z" fill="#282828" fill-opacity="0.3"/>
<path d="M0.5 10C0.5 4.7533 4.7533 0.5 10 0.5H30C35.2467 0.5 39.5 4.7533 39.5 10V30C39.5 35.2467 35.2467 39.5 30 39.5H10C4.7533 39.5 0.5 35.2467 0.5 30V10Z" stroke="#B9CDD4" stroke-opacity="0.1"/>
</g>
</g>
</g>
<path id="Vector 24" d="M12 27L28 27" stroke="#DBDBDB" stroke-linecap="round" stroke-linejoin="round"/>
<path id="Vector 85" d="M12 20L28 20" stroke="#DBDBDB" stroke-linecap="round" stroke-linejoin="round"/>
<path id="Vector 86" d="M12 13L28 13" stroke="#DBDBDB" stroke-linecap="round" stroke-linejoin="round"/>
</g>
<defs>
<filter id="filter0_b_1385_14400" x="-20" y="-20" width="80" height="80" filterUnits="userSpaceOnUse" color-interpolation-filters="sRGB">
<feFlood flood-opacity="0" result="BackgroundImageFix"/>
<feGaussianBlur in="BackgroundImageFix" stdDeviation="10"/>
<feComposite in2="SourceAlpha" operator="in" result="effect1_backgroundBlur_1385_14400"/>
<feBlend mode="normal" in="SourceGraphic" in2="effect1_backgroundBlur_1385_14400" result="shape"/>
</filter>
<filter id="filter1_b_1385_14400" x="-20" y="-20" width="80" height="80" filterUnits="userSpaceOnUse" color-interpolation-filters="sRGB">
<feFlood flood-opacity="0" result="BackgroundImageFix"/>
<feGaussianBlur in="BackgroundImageFix" stdDeviation="10"/>
<feComposite in2="SourceAlpha" operator="in" result="effect1_backgroundBlur_1385_14400"/>
<feBlend mode="normal" in="SourceGraphic" in2="effect1_backgroundBlur_1385_14400" result="shape"/>
</filter>
</defs>
</svg>
