<svg width="86" height="84" viewBox="0 0 86 84" fill="none" xmlns="http://www.w3.org/2000/svg">
<g id="Logo">
<path id="&#194;&#174;" d="M75.8582 6.50658H76.7113C76.8955 6.50658 77.0678 6.50255 77.228 6.49448C77.3962 6.47836 77.5444 6.44207 77.6725 6.38562C77.8007 6.32917 77.9008 6.2445 77.9729 6.13161C78.053 6.01065 78.0931 5.84534 78.0931 5.63568C78.0931 5.45828 78.057 5.31716 77.9849 5.21233C77.9208 5.1075 77.8327 5.02686 77.7206 4.97042C77.6165 4.91397 77.4923 4.87768 77.3481 4.86156C77.2119 4.83736 77.0758 4.82527 76.9396 4.82527H75.8582V6.50658ZM75.0412 4.16H77.0718C77.6966 4.16 78.1571 4.28499 78.4535 4.53497C78.7579 4.78495 78.9101 5.16395 78.9101 5.67197C78.9101 6.14774 78.7779 6.49852 78.5136 6.7243C78.2493 6.94203 77.9208 7.07105 77.5283 7.11137L79.0303 9.44585H78.1531L76.7233 7.17185H75.8582V9.44585H75.0412V4.16ZM73.0827 6.78478C73.0827 7.34119 73.1748 7.85727 73.359 8.33304C73.5513 8.80074 73.8116 9.20797 74.14 9.55471C74.4765 9.90146 74.8689 10.1756 75.3175 10.3772C75.7741 10.5708 76.2667 10.6675 76.7954 10.6675C77.3161 10.6675 77.8007 10.5708 78.2493 10.3772C78.6978 10.1756 79.0863 9.90146 79.4148 9.55471C79.7512 9.20797 80.0115 8.80074 80.1957 8.33304C80.388 7.85727 80.4841 7.34119 80.4841 6.78478C80.4841 6.2445 80.388 5.74051 80.1957 5.27281C80.0115 4.80511 79.7512 4.40192 79.4148 4.06323C79.0863 3.71649 78.6978 3.44635 78.2493 3.25282C77.8007 3.05122 77.3161 2.95042 76.7954 2.95042C76.2667 2.95042 75.7741 3.05122 75.3175 3.25282C74.8689 3.44635 74.4765 3.71649 74.14 4.06323C73.8116 4.40192 73.5513 4.80511 73.359 5.27281C73.1748 5.74051 73.0827 6.2445 73.0827 6.78478ZM72.2656 6.78478C72.2656 6.14774 72.3858 5.55505 72.6261 5.0067C72.8664 4.45836 73.1908 3.9826 73.5993 3.5794C74.0159 3.17621 74.4965 2.86172 75.0412 2.63593C75.5939 2.40208 76.1786 2.28516 76.7954 2.28516C77.4122 2.28516 77.9929 2.40208 78.5376 2.63593C79.0823 2.86172 79.5589 3.17621 79.9675 3.5794C80.376 3.9826 80.7004 4.45836 80.9407 5.0067C81.181 5.55505 81.3012 6.14774 81.3012 6.78478C81.3012 7.43795 81.181 8.04274 80.9407 8.59915C80.7004 9.14749 80.376 9.62729 79.9675 10.0385C79.5589 10.4417 79.0823 10.7562 78.5376 10.982C77.9929 11.2078 77.4122 11.3207 76.7954 11.3207C76.1786 11.3207 75.5939 11.2078 75.0412 10.982C74.4965 10.7562 74.0159 10.4417 73.5993 10.0385C73.1908 9.62729 72.8664 9.14749 72.6261 8.59915C72.3858 8.04274 72.2656 7.43795 72.2656 6.78478Z" fill="white"/>
<g id="Group 26">
<g id="Group 25">
<path id="Union" fill-rule="evenodd" clip-rule="evenodd" d="M37.2329 52.9914C37.9011 52.8429 38.4463 52.3617 38.6765 51.717L40.1999 47.4514C40.483 46.6588 41.2338 46.1296 42.0755 46.1296H43.0374H43.9993C44.841 46.1296 45.5918 46.6588 45.8749 47.4514L47.3983 51.717C47.6285 52.3617 48.1737 52.8429 48.8419 52.9914L50.257 53.3059C50.5531 53.3717 50.8612 53.4179 51.1545 53.3404L58.0389 51.5211C59.3022 51.1872 60.5394 52.1399 60.5394 53.4466V55.1088C60.5394 56.0127 59.9305 56.8033 59.0566 57.0343L53.3367 58.5458C52.1391 58.8623 51.254 59.8748 51.1003 61.1039C51.0867 61.2133 51.0821 61.3236 51.0867 61.4338L51.9395 81.9017C51.9867 83.0332 51.0821 83.9762 49.9496 83.9762H47.9866C46.9822 83.9762 46.1349 83.2283 46.0103 82.2316L45.6186 79.0975C45.494 78.1008 44.6468 77.3529 43.6423 77.3529H42.4278C41.4234 77.3529 40.5762 78.1008 40.4516 79.0975L40.0598 82.2316C39.9352 83.2283 39.088 83.9762 38.0836 83.9762H36.1252C34.9927 83.9762 34.0881 83.0332 34.1353 81.9017L34.9881 61.4338C34.9927 61.3236 34.9881 61.2133 34.9744 61.1039C34.8209 59.8754 33.9363 58.8636 32.7394 58.5473L27.014 57.0343C26.1401 56.8033 25.5312 56.0127 25.5312 55.1088V53.4466C25.5312 52.1399 26.7684 51.1872 28.0317 51.5211L34.9173 53.3407C35.2115 53.4185 35.5207 53.3719 35.8178 53.3059L37.2329 52.9914Z" fill="white"/>
<path id="Union_2" fill-rule="evenodd" clip-rule="evenodd" d="M37.9256 7.67519C38.1755 7.453 38.3655 7.17144 38.478 6.85649L40.1999 2.03514C40.483 1.24249 41.2338 0.713379 42.0755 0.713379H43.0374H43.9993C44.841 0.713379 45.5918 1.24249 45.8749 2.03514L47.5968 6.85649C47.7093 7.17144 47.8992 7.453 48.1492 7.67519L49.0621 8.48662C50.0757 9.38764 51.3026 10.015 52.6265 10.3092L58.9798 11.721C59.891 11.9235 60.5394 12.7317 60.5394 13.6652V15.3669C60.5394 16.641 59.3595 17.5875 58.1157 17.3111L51.435 15.8265C51.2575 15.7871 51.0822 15.9093 51.0898 16.091L51.9395 36.4854C51.9867 37.6169 51.0821 38.56 49.9496 38.56H47.3943C46.2944 38.56 45.4027 37.6683 45.4027 36.5684V31.0901C45.4027 29.9902 44.511 29.0985 43.4111 29.0985H42.6635C41.5636 29.0985 40.6719 29.9902 40.6719 31.0901V36.5684C40.6719 37.6683 39.7802 38.56 38.6803 38.56H36.1252C34.9927 38.56 34.0881 37.6169 34.1353 36.4854L34.985 16.091C34.9926 15.9087 34.8168 15.7862 34.6388 15.8258L27.9549 17.3111C26.7111 17.5875 25.5312 16.641 25.5312 15.3669V13.6652C25.5312 12.7317 26.1796 11.9235 27.0908 11.721L33.4497 10.3079C34.7736 10.0137 36.0005 9.3864 37.0141 8.48538L37.9256 7.67519Z" fill="white"/>
</g>
<g id="Group 24">
<path id="Union_3" fill-rule="evenodd" clip-rule="evenodd" d="M67.6268 22.2216C66.849 21.4438 66.849 20.1828 67.6268 19.405L68.8245 18.2074C69.6022 17.4296 70.8633 17.4296 71.641 18.2074L75.8065 22.3728C76.5843 23.1506 77.8453 23.1506 78.6231 22.3728L78.8827 22.1132C79.2562 21.7397 79.7628 21.5299 80.291 21.5299H81.8705C82.7007 21.5299 83.4438 22.0448 83.7353 22.8222L84.5557 25.0098C84.6314 25.2116 84.6738 25.4243 84.6813 25.6397L86.0032 63.5359C86.0502 64.8825 84.9714 65.9996 83.624 65.9996C82.8032 65.9996 82.0402 65.5767 81.6052 64.8807L81.3364 64.4507C80.6911 63.418 79.1872 63.418 78.5418 64.4507L78.2611 64.8998C77.8335 65.584 77.0836 65.9996 76.2767 65.9996C74.9281 65.9996 73.8587 64.8626 73.9411 63.5166L74.512 54.1919C74.5755 53.1545 73.3219 52.5898 72.587 53.3247C71.8092 54.1025 70.5482 54.1025 69.7704 53.3247L68.5727 52.1271C67.7949 51.3493 67.7949 50.0883 68.5727 49.3105L74.9349 42.9483C75.1601 42.7231 75.3302 42.4476 75.4177 42.1413C76.8085 37.2719 75.7769 32.3971 75.0007 29.8971C74.9092 29.6027 74.7437 29.3385 74.5257 29.1205L67.6268 22.2216Z" fill="white"/>
<path id="Union_4" fill-rule="evenodd" clip-rule="evenodd" d="M18.3791 22.2216C19.1568 21.4438 19.1568 20.1828 18.3791 19.405L17.1814 18.2074C16.4036 17.4296 15.1426 17.4296 14.3648 18.2074L10.1995 22.3727C9.42172 23.1505 8.1607 23.1505 7.38292 22.3727L7.12317 22.1129C6.74967 21.7394 6.24309 21.5296 5.71488 21.5296H4.13537C3.30517 21.5296 2.56206 22.0446 2.27056 22.8219L1.45018 25.0096C1.37452 25.2114 1.3321 25.4241 1.32458 25.6395L0.00262451 63.5357C-0.0443459 64.8822 1.03451 65.9994 2.38186 65.9994C3.20269 65.9994 3.96563 65.5765 4.40067 64.8804L4.66943 64.4504C5.31481 63.4178 6.8187 63.4178 7.46408 64.4504L7.74478 64.8995C8.17239 65.5837 8.92231 65.9994 9.72913 65.9994C11.0777 65.9994 12.1472 64.8624 12.0648 63.5163L11.4939 54.1917C11.4304 53.1543 12.684 52.5895 13.4189 53.3245C14.1967 54.1023 15.4577 54.1022 16.2355 53.3245L17.4332 52.1268C18.2109 51.349 18.2109 50.088 17.4332 49.3102L11.071 42.9481C10.8458 42.7228 10.6756 42.4473 10.5882 42.141C9.19743 37.2719 10.2288 32.3973 11.0051 29.8972C11.0965 29.6028 11.2621 29.3386 11.4801 29.1206L18.3791 22.2216Z" fill="white"/>
</g>
</g>
</g>
</svg>
