<svg width="54" height="53" viewBox="0 0 54 53" fill="none" xmlns="http://www.w3.org/2000/svg">
<g id="Logo">
<path id="&#194;&#174;" d="M47.6262 3.63719H48.1618C48.2774 3.63719 48.3856 3.63466 48.4862 3.62959C48.5918 3.61947 48.6848 3.59669 48.7653 3.56125C48.8457 3.52581 48.9086 3.47265 48.9539 3.40177C49.0041 3.32583 49.0293 3.22204 49.0293 3.09041C49.0293 2.97902 49.0067 2.89043 48.9614 2.82461C48.9212 2.75879 48.8658 2.70817 48.7954 2.67273C48.7301 2.63729 48.6521 2.6145 48.5616 2.60438C48.4761 2.58919 48.3906 2.5816 48.3051 2.5816H47.6262V3.63719ZM47.1132 2.16392H48.3881C48.7804 2.16392 49.0695 2.24239 49.2556 2.39934C49.4467 2.55628 49.5423 2.79423 49.5423 3.11319C49.5423 3.41189 49.4593 3.63212 49.2933 3.77388C49.1274 3.91058 48.9212 3.99158 48.6747 4.0169L49.6177 5.48257H49.067L48.1693 4.05487H47.6262V5.48257H47.1132V2.16392ZM45.8836 3.81185C45.8836 4.16119 45.9414 4.48521 46.0571 4.78391C46.1778 5.07755 46.3412 5.33322 46.5474 5.55092C46.7586 5.76862 47.0051 5.94076 47.2867 6.06733C47.5734 6.18883 47.8827 6.24959 48.2146 6.24959C48.5415 6.24959 48.8457 6.18883 49.1274 6.06733C49.409 5.94076 49.6529 5.76862 49.8591 5.55092C50.0703 5.33322 50.2338 5.07755 50.3494 4.78391C50.4701 4.48521 50.5305 4.16119 50.5305 3.81185C50.5305 3.47265 50.4701 3.15622 50.3494 2.86258C50.2338 2.56894 50.0703 2.3158 49.8591 2.10316C49.6529 1.88546 49.409 1.71586 49.1274 1.59435C48.8457 1.46778 48.5415 1.4045 48.2146 1.4045C47.8827 1.4045 47.5734 1.46778 47.2867 1.59435C47.0051 1.71586 46.7586 1.88546 46.5474 2.10316C46.3412 2.3158 46.1778 2.56894 46.0571 2.86258C45.9414 3.15622 45.8836 3.47265 45.8836 3.81185ZM45.3706 3.81185C45.3706 3.41189 45.446 3.03978 45.5969 2.69551C45.7478 2.35124 45.9515 2.05253 46.208 1.79939C46.4695 1.54625 46.7712 1.34881 47.1132 1.20705C47.4602 1.06023 47.8273 0.986816 48.2146 0.986816C48.6018 0.986816 48.9664 1.06023 49.3084 1.20705C49.6504 1.34881 49.9496 1.54625 50.2061 1.79939C50.4626 2.05253 50.6663 2.35124 50.8172 2.69551C50.968 3.03978 51.0435 3.41189 51.0435 3.81185C51.0435 4.22194 50.968 4.60165 50.8172 4.95098C50.6663 5.29525 50.4626 5.59649 50.2061 5.85469C49.9496 6.10783 49.6504 6.30528 49.3084 6.44704C48.9664 6.5888 48.6018 6.65967 48.2146 6.65967C47.8273 6.65967 47.4602 6.5888 47.1132 6.44704C46.7712 6.30528 46.4695 6.10783 46.208 5.85469C45.9515 5.59649 45.7478 5.29525 45.5969 4.95098C45.446 4.60165 45.3706 4.22194 45.3706 3.81185Z" fill="white"/>
<g id="Group 26">
<g id="Group 25">
<path id="Union" fill-rule="evenodd" clip-rule="evenodd" d="M23.0401 32.8968C23.6685 32.7572 24.1811 32.3046 24.3976 31.6984L25.0628 29.8359C25.3459 29.0433 26.0967 28.5142 26.9384 28.5142H27.0199H27.1015C27.9432 28.5142 28.694 29.0433 28.9771 29.8359L29.6423 31.6984C29.8588 32.3046 30.3714 32.7572 30.9998 32.8968C31.4311 32.9926 31.88 33.1036 32.3072 32.9907L35.805 32.0663C36.9182 31.7722 38.0082 32.6116 38.0082 33.763C38.0082 34.5595 37.4718 35.2561 36.7017 35.4596L33.4268 36.325C32.7108 36.5142 32.1817 37.1195 32.0898 37.8544C32.0761 37.9638 32.0716 38.0741 32.0762 38.1843L32.5813 50.3064C32.626 51.3805 31.7673 52.2757 30.6923 52.2757C29.7389 52.2757 28.9346 51.5657 28.8164 50.6196L28.6878 49.5909C28.5826 48.749 27.8669 48.1172 27.0185 48.1172C26.1701 48.1172 25.4544 48.749 25.3492 49.5909L25.2204 50.621C25.1023 51.5663 24.2987 52.2757 23.346 52.2757C22.2718 52.2757 21.4138 51.3812 21.4586 50.308L21.9637 38.1843C21.9683 38.0741 21.9637 37.9638 21.9501 37.8544C21.8583 37.12 21.3294 36.5151 20.6139 36.326L17.3353 35.4596C16.5652 35.2561 16.0288 34.5595 16.0288 33.763C16.0288 32.6116 17.1189 31.7722 18.232 32.0663L21.731 32.991C22.1587 33.104 22.6082 32.9928 23.0401 32.8968Z" fill="white"/>
<path id="Union_2" fill-rule="evenodd" clip-rule="evenodd" d="M23.6688 4.49693C23.9187 4.27474 24.1087 3.99318 24.2212 3.67822L25.0628 1.32176C25.3459 0.529114 26.0967 0 26.9384 0H27.0199H27.1015C27.9432 0 28.694 0.529115 28.9771 1.32177L29.8187 3.67822C29.9312 3.99318 30.1212 4.27474 30.3711 4.49692C31.2906 5.31421 32.4034 5.88323 33.6043 6.15009L36.6207 6.8204C37.4314 7.00056 38.0082 7.71962 38.0082 8.5501C38.0082 9.68367 36.9585 10.5257 35.852 10.2798L32.3826 9.50883C32.2261 9.47406 32.0726 9.58343 32.0792 9.74359L32.5769 21.687C32.624 22.8185 31.7194 23.7615 30.587 23.7615H30.4966C29.3966 23.7615 28.505 22.8699 28.505 21.7699V19.3064C28.505 18.4862 27.8401 17.8214 27.0199 17.8214C26.1997 17.8214 25.5348 18.4863 25.5348 19.3064V21.7699C25.5348 22.8699 24.6431 23.7615 23.5432 23.7615H23.4529C22.3204 23.7615 21.4159 22.8185 21.463 21.687L21.9607 9.74359C21.9673 9.58308 21.8135 9.4735 21.6566 9.50835L18.1851 10.2798C17.0785 10.5257 16.0288 9.68367 16.0288 8.5501C16.0288 7.71962 16.6056 7.00056 17.4163 6.8204L20.4378 6.14898C21.6378 5.88229 22.7499 5.31366 23.6688 4.49693Z" fill="white"/>
</g>
<g id="Group 24">
<path id="Union_3" fill-rule="evenodd" clip-rule="evenodd" d="M42.834 13.8794C42.138 13.1835 42.138 12.0551 42.834 11.3591C43.5299 10.6632 44.6583 10.6632 45.3543 11.3591L47.4783 13.4832C48.0303 14.0351 48.9252 14.0352 49.4771 13.4832C49.7422 13.2181 50.1017 13.0692 50.4765 13.0692H50.8871C51.7173 13.0692 52.4604 13.5842 52.7519 14.3615L53.0441 15.1407C53.1197 15.3425 53.1622 15.5552 53.1697 15.7706L53.9954 39.4423C54.0249 40.2877 53.3476 40.989 52.5016 40.989C51.9863 40.989 51.5073 40.7236 51.2342 40.2865L51.0654 40.0166C50.6602 39.3682 49.716 39.3682 49.3108 40.0166L49.1346 40.2985C48.8661 40.7281 48.3953 40.989 47.8887 40.989C47.042 40.989 46.3706 40.2752 46.4223 39.4301L46.8132 33.0449C46.8418 32.5787 46.2784 32.3249 45.9482 32.6552C45.2522 33.3512 44.1238 33.3512 43.4279 32.6552C42.7319 31.9593 42.7319 30.8309 43.4279 30.1349L46.9187 26.6441C47.1439 26.4189 47.3154 26.1434 47.3975 25.8357C48.1701 22.9418 47.6082 20.0704 47.1382 18.4893C47.0504 18.1938 46.884 17.9294 46.666 17.7114L42.834 13.8794Z" fill="white"/>
<path id="Union_4" fill-rule="evenodd" clip-rule="evenodd" d="M11.1621 13.8794C11.8581 13.1835 11.8581 12.0551 11.1621 11.3591C10.4662 10.6632 9.33778 10.6632 8.64182 11.3591L6.51788 13.4831C5.9659 14.035 5.07097 14.035 4.51899 13.4831C4.25392 13.218 3.8944 13.0691 3.51954 13.0691H3.10904C2.27884 13.0691 1.53573 13.5841 1.24423 14.3614L0.952041 15.1406C0.876373 15.3423 0.833957 15.5551 0.826444 15.7704L0.000688553 39.4421C-0.0288029 40.2875 0.648542 40.9889 1.49446 40.9889C2.00981 40.9889 2.48881 40.7234 2.76195 40.2864L2.93068 40.0164C3.33588 39.3681 4.28008 39.3681 4.68528 40.0164L4.86151 40.2984C5.12998 40.7279 5.60081 40.9889 6.10736 40.9889C6.95407 40.9889 7.62553 40.2751 7.57379 39.4299L7.18286 33.0448C7.15432 32.5786 7.71766 32.3248 8.04792 32.6551C8.74388 33.351 9.87225 33.351 10.5682 32.6551C11.2642 31.9591 11.2642 30.8307 10.5682 30.1348L7.0774 26.644C6.85217 26.4187 6.68073 26.1433 6.59857 25.8355C5.82607 22.9418 6.38787 20.0705 6.8578 18.4893C6.94563 18.1938 7.11209 17.9294 7.33009 17.7114L11.1621 13.8794Z" fill="white"/>
</g>
</g>
</g>
</svg>
