<svg xmlns="http://www.w3.org/2000/svg" width="20" height="20" viewBox="0 0 20 20" fill="none">
<circle cx="10" cy="10" r="9.5" fill="url(#paint0_linear_636_5139)" fill-opacity="0.15" stroke="url(#paint1_linear_636_5139)"/>
<path d="M12.4657 5.09552C12.6862 5.00315 12.9226 4.97787 13.1534 5.022C13.8471 5.15325 14.3068 5.88075 14.3103 6.64493C14.312 6.93888 14.2444 7.22755 14.1152 7.47827C13.8997 7.8991 13.5467 8.20494 13.2379 8.52411C13.0341 8.73494 12.6807 9.3412 12.5077 9.99621C12.4028 10.3929 12.3179 10.7966 12.2329 11.2004L12.2329 11.2004C12.1133 11.765 11.9504 13.0146 11.8434 13.5812C11.6287 14.7162 10.9612 14.9738 10.3033 15H10.2801C9.62217 14.9738 8.96527 14.7167 8.75086 13.5817C8.64348 13.015 8.47996 11.7662 8.36135 11.2008C8.27678 10.795 8.19151 10.3933 8.08659 9.99662C7.91359 9.34162 7.56023 8.73744 7.356 8.52494C7.04755 8.20619 6.69419 7.89994 6.47873 7.4791C6.34958 7.22835 6.28212 6.93968 6.28397 6.64576C6.28818 5.88284 6.74893 5.15533 7.44127 5.02241C7.67216 4.97684 7.90899 5.00101 8.12994 5.09269C8.35089 5.18436 8.54886 5.3406 8.7056 5.547C9.00317 5.94242 9.09581 6.45659 9.02422 6.97201C8.95965 7.43785 8.87368 7.90994 8.85438 8.35577C8.82733 9.03033 8.91407 9.7045 9.10949 10.3387C9.28565 10.9158 9.53971 11.3608 10.0794 11.4596C10.15 11.4696 10.221 11.4746 10.292 11.4746C10.3335 11.4716 10.4791 11.4662 10.5191 11.4587C11.0588 11.3604 11.3107 10.9154 11.4876 10.3416C11.683 9.70754 11.7697 9.03353 11.7427 8.35911C11.7234 7.9116 11.6374 7.43993 11.5725 6.97493C11.5009 6.45992 11.5936 5.94534 11.8915 5.55075C12.0479 5.3444 12.2453 5.18789 12.4657 5.09552Z" fill="#FF6C1A"/>
<defs>
<linearGradient id="paint0_linear_636_5139" x1="10" y1="0" x2="10" y2="20" gradientUnits="userSpaceOnUse">
<stop stop-color="#FF6C1A"/>
<stop offset="1" stop-color="#2F1100"/>
</linearGradient>
<linearGradient id="paint1_linear_636_5139" x1="10" y1="0" x2="10" y2="20" gradientUnits="userSpaceOnUse">
<stop stop-color="#FF6C1A"/>
<stop offset="1" stop-color="#551F01"/>
</linearGradient>
</defs>
</svg>