<svg
  xmlns="http://www.w3.org/2000/svg"
  width="20"
  height="20"
  viewBox="0 0 20 20"
  fill="none"
>
  <circle
    cx="10"
    cy="10"
    r="9.5"
    fill="url(#paint0_linear_636_2874)"
    fill-opacity="0.15"
    stroke="url(#paint1_linear_636_2874)"
  />
  <path
    d="M12.1614 5.09552C12.3812 5.00315 12.6168 4.97787 12.8468 5.022C13.5383 5.15325 13.9965 5.88075 14 6.64493C14.0017 6.93888 13.9343 7.22755 13.8055 7.47827C13.5908 7.8991 13.2389 8.20494 12.9311 8.52411C12.7279 8.73494 12.3757 9.3412 12.2033 9.99621C12.0987 10.3929 12.0141 10.7966 11.9294 11.2004L11.9294 11.2004C11.8102 11.765 11.6479 13.0146 11.5412 13.5812C11.3271 14.7162 10.6619 14.9738 10.0061 15H9.98304C9.32725 14.9738 8.67251 14.7167 8.45881 13.5817C8.35179 13.015 8.1888 11.7662 8.07058 11.2008C7.98629 10.795 7.9013 10.3933 7.79673 9.99662C7.6243 9.34162 7.2721 8.73744 7.06854 8.52494C6.7611 8.20619 6.4089 7.89994 6.19415 7.4791C6.06543 7.22835 5.99819 6.93968 6.00004 6.64576C6.00423 5.88284 6.46346 5.15533 7.15353 5.02241C7.38365 4.97684 7.61971 5.00101 7.83993 5.09269C8.06016 5.18436 8.25747 5.3406 8.41369 5.547C8.71029 5.94242 8.80262 6.45659 8.73127 6.97201C8.66692 7.43785 8.58123 7.90994 8.56199 8.35577C8.53503 9.03033 8.62148 9.7045 8.81626 10.3387C8.99184 10.9158 9.24506 11.3608 9.78298 11.4596C9.85331 11.4696 9.9241 11.4746 9.99493 11.4746C10.0362 11.4716 10.1813 11.4662 10.2212 11.4587C10.7591 11.3604 11.0103 10.9154 11.1865 10.3416C11.3813 9.70754 11.4677 9.03353 11.4408 8.35911C11.4216 7.9116 11.3359 7.43993 11.2712 6.97493C11.1998 6.45992 11.2922 5.94534 11.5891 5.55075C11.745 5.3444 11.9417 5.18789 12.1614 5.09552Z"
    fill="#E0FF25"
  />
  <defs>
    <linearGradient
      id="paint0_linear_636_2874"
      x1="10"
      y1="0"
      x2="10"
      y2="20"
      gradientUnits="userSpaceOnUse"
    >
      <stop stop-color="#E0FF25" />
      <stop offset="1" stop-color="#3C4600" />
    </linearGradient>
    <linearGradient
      id="paint1_linear_636_2874"
      x1="10"
      y1="0"
      x2="10"
      y2="20"
      gradientUnits="userSpaceOnUse"
    >
      <stop stop-color="#E0FF25" />
      <stop offset="1" stop-color="#798D00" />
    </linearGradient>
  </defs>
</svg>
