<svg width="1849" height="270" viewBox="0 0 1849 270" fill="none" xmlns="http://www.w3.org/2000/svg">
<path d="M202.756 195.655L204.925 233.986C205.166 246.281 207.818 256.286 212.881 264H162.616C158.277 256.768 155.987 246.522 155.746 233.263L154.661 205.057C153.937 189.386 150.321 178.538 143.812 172.511C137.544 166.243 127.419 163.109 113.436 163.109H49.792V264H0.97375V6.52914H117.776C146.464 6.52914 168.764 13.0382 184.675 26.0564C200.586 39.0746 208.542 56.7938 208.542 79.214C208.542 110.072 194.197 130.564 165.509 140.689C178.527 144.787 187.809 151.296 193.354 160.216C199.14 168.895 202.274 180.708 202.756 195.655ZM49.792 46.6686V124.778H114.883C128.624 124.778 139.232 121.403 146.705 114.652C154.42 107.661 158.277 97.6565 158.277 84.6383C158.277 72.3433 154.299 62.9413 146.344 56.4322C138.629 49.9231 127.539 46.6686 113.075 46.6686H49.792ZM842.144 73.0666C862.636 73.0666 878.547 79.0935 889.878 91.1474C901.449 103.201 907.235 119.715 907.235 140.689V264H861.672V147.921C861.672 124.296 850.944 112.483 829.488 112.483C817.916 112.483 808.514 116.702 801.282 125.139C794.29 133.336 790.795 145.39 790.795 161.301V264H745.593V147.921C745.593 124.296 734.744 112.483 713.047 112.483C701.717 112.483 692.435 116.702 685.203 125.139C678.212 133.336 674.716 145.39 674.716 161.301V264H629.152V77.4059H673.269V104.166C686.047 83.4329 703.766 73.0666 726.427 73.0666C754.874 73.0666 774.16 84.6383 784.286 107.782C798.268 84.6383 817.554 73.0666 842.144 73.0666ZM1044.68 269.786C1009.73 269.786 982.606 261.951 963.32 246.281C944.275 230.611 934.631 208.191 934.39 179.02H982.485C982.726 197.342 988.151 210.481 998.758 218.436C1009.61 226.392 1025.4 230.37 1046.13 230.37C1063.01 230.37 1075.9 227.236 1084.82 220.968C1093.74 214.459 1098.2 205.177 1098.2 193.123C1098.2 182.998 1094.35 175.283 1086.63 169.98C1079.16 164.676 1065.42 159.975 1045.41 155.877L1023.71 151.537C968.503 141.171 940.899 115.135 940.899 73.4282C940.899 51.249 949.337 33.6504 966.213 20.6322C983.088 7.37291 1006.47 0.743271 1036.37 0.743271C1070.36 0.743271 1096.03 7.9756 1113.39 22.4403C1130.99 36.9049 1140.27 57.1554 1141.23 83.1918H1093.86C1092.9 68.4861 1087.96 57.6376 1079.04 50.6463C1070.36 43.6551 1056.38 40.1595 1037.09 40.1595C1022.14 40.1595 1010.69 42.9319 1002.74 48.4766C994.78 54.0214 990.802 61.8564 990.802 71.9817C990.802 82.348 994.419 90.3036 1001.65 95.8484C1009.12 101.393 1022.26 106.094 1041.07 109.951L1063.49 114.291C1093.62 120.318 1115.32 129.358 1128.58 141.412C1142.08 153.225 1148.83 169.618 1148.83 190.592C1148.83 215.664 1139.67 235.191 1121.35 249.174C1103.02 262.915 1077.47 269.786 1044.68 269.786ZM1268.15 77.4059V112.121H1231.26V213.012C1231.26 219.039 1232.83 223.258 1235.96 225.669C1239.34 228.079 1244.88 229.285 1252.6 229.285H1268.15V264C1258.26 264.964 1250.31 265.446 1244.28 265.446C1224.03 265.446 1209.2 261.71 1199.8 254.236C1190.64 246.522 1186.06 234.347 1186.06 217.713V112.121H1157.13V77.4059H1186.06V23.1635H1231.26V77.4059H1268.15ZM1461.55 264H1415.99C1413.82 260.143 1412.13 252.549 1410.93 241.218C1398.39 259.299 1378.38 268.339 1350.9 268.339C1330.41 268.339 1314.01 263.397 1301.72 253.513C1289.67 243.629 1283.64 229.888 1283.64 212.289C1283.64 178.297 1307.51 158.89 1355.24 154.069L1383.44 151.537C1392.85 150.332 1399.6 148.162 1403.69 145.028C1407.79 141.653 1409.84 136.711 1409.84 130.202C1409.84 122.246 1407.19 116.461 1401.89 112.844C1396.82 108.987 1388.15 107.058 1375.85 107.058C1362.59 107.058 1353.07 109.349 1347.28 113.929C1341.5 118.269 1338.12 125.863 1337.16 136.711H1292.32C1294.97 94.2814 1322.93 73.0666 1376.21 73.0666C1428.04 73.0666 1453.96 91.7501 1453.96 129.117V228.562C1453.96 244.955 1456.49 256.768 1461.55 264ZM1361.75 235.794C1375.97 235.794 1387.54 231.937 1396.46 224.222C1405.38 216.267 1409.84 204.936 1409.84 190.23V173.234C1405.5 177.092 1398.39 179.623 1388.51 180.828L1363.92 183.721C1351.86 185.168 1343.18 188.061 1337.88 192.4C1332.82 196.498 1330.29 202.525 1330.29 210.481C1330.29 218.436 1332.94 224.704 1338.24 229.285C1343.79 233.624 1351.62 235.794 1361.75 235.794ZM1667 264H1614.93L1560.68 177.212L1532.48 205.418V264H1487.64V6.52914H1532.48V154.792L1608.42 77.4059H1662.66L1592.15 147.921L1667 264ZM1848.44 173.958V184.806H1708.85C1710.54 200.717 1715.48 212.771 1723.68 220.968C1732.12 228.923 1743.33 232.901 1757.31 232.901C1778.04 232.901 1792.27 223.981 1799.98 206.141H1843.74C1838.92 225.187 1828.79 240.374 1813.36 251.705C1797.93 262.795 1779.13 268.339 1756.95 268.339C1729.23 268.339 1706.8 259.42 1689.69 241.58C1672.57 223.74 1664.01 200.114 1664.01 170.703C1664.01 141.292 1672.45 117.666 1689.33 99.8262C1706.44 81.9864 1728.74 73.0666 1756.23 73.0666C1784.43 73.0666 1806.85 82.348 1823.49 100.911C1840.12 119.474 1848.44 143.823 1848.44 173.958ZM1755.86 108.505C1729.1 108.505 1713.56 123.331 1709.22 152.984H1802.87C1800.95 139.242 1795.88 128.394 1787.69 120.438C1779.49 112.483 1768.88 108.505 1755.86 108.505Z" fill="white"/>
</svg>
