<svg xmlns="http://www.w3.org/2000/svg" width="20" height="20" viewBox="0 0 20 20" fill="none">
<path d="M15.565 12.5459C15.31 12.5459 15.0551 12.449 14.8601 12.255C14.4681 11.866 14.466 11.232 14.856 10.841L16.824 8.86296C17.584 8.11096 18 7.10394 18 6.02394C18 4.94394 17.5829 3.93295 16.8259 3.17595C15.2599 1.60795 12.7079 1.60995 11.1389 3.17595L9.17311 5.15196C8.78411 5.54296 8.15205 5.54596 7.75905 5.15596C7.36705 4.76696 7.3649 4.13296 7.7549 3.74196L9.72291 1.76396C12.0719 -0.58504 15.893 -0.585054 18.24 1.76195C19.375 2.89595 20 4.40994 20 6.02394C20 7.64294 19.3741 9.15395 18.2361 10.28L16.2739 12.2529C16.0789 12.4479 15.822 12.5459 15.565 12.5459ZM10.2739 18.2399L12.2529 16.272C12.6449 15.882 12.6471 15.249 12.2571 14.858C11.8671 14.467 11.235 14.464 10.843 14.854L8.86305 16.824C7.29405 18.392 4.74404 18.39 3.17604 16.824C1.60904 15.256 1.60909 12.706 3.17409 11.14L5.15309 9.17195C5.54509 8.78195 5.547 8.14895 5.157 7.75795C4.767 7.36695 4.13493 7.36395 3.74293 7.75395L1.76295 9.72395C-0.585047 12.071 -0.585047 15.89 1.76295 18.238C2.93795 19.412 4.47999 19.9979 6.02199 19.9979C7.56199 19.9989 9.10294 19.4129 10.2739 18.2399ZM7.70704 13.707L13.7329 7.68196C14.1239 7.29096 14.1239 6.65796 13.7329 6.26796C13.3419 5.87796 12.7101 5.87796 12.3191 6.26796L6.29298 12.293C5.90198 12.684 5.90198 13.317 6.29298 13.707C6.48798 13.902 6.74401 14 7.00001 14C7.25601 14 7.51204 13.902 7.70704 13.707Z" fill='#E0FF25'/>
</svg>